<svg xmlns="http://www.w3.org/2000/svg" xmlns:xlink="http://www.w3.org/1999/xlink" version="1.1" x="0px" y="0px"
  viewBox="0 0 64 80" style="enable-background:new 0 0 64 64;" xml:space="preserve">
  <g>
    <g>
      <g>
        <g>
          <g>
            <g>
              <path
                d="M41.97,50.8H3.48C1.56,50.8,0,49.24,0,47.32V10.24c0-1.92,1.56-3.48,3.48-3.48h50.61c1.91,0,3.47,1.56,3.47,3.48V35.2        c0,0.54-0.43,0.97-0.97,0.97s-0.97-0.43-0.97-0.97V10.24c0-0.85-0.69-1.54-1.53-1.54H3.48c-0.85,0-1.54,0.69-1.54,1.54v37.08        c0,0.85,0.69,1.54,1.54,1.54h38.49c0.54,0,0.97,0.43,0.97,0.97S42.51,50.8,41.97,50.8z" />
            </g>
            <g>
              <path
                d="M40.97,46.21H5.56c-0.54,0-0.97-0.43-0.97-0.97V12.33c0-0.54,0.43-0.97,0.97-0.97H52c0.54,0,0.97,0.43,0.97,0.97V34.2        c0,0.54-0.43,0.97-0.97,0.97s-0.97-0.43-0.97-0.97V13.3H6.53v30.97h34.44c0.54,0,0.97,0.43,0.97,0.97        C41.94,45.77,41.51,46.21,40.97,46.21z" />
            </g>
          </g>
          <g>
            <path
              d="M5.56,46.21c-0.19,0-0.38-0.06-0.55-0.17c-0.44-0.3-0.55-0.91-0.25-1.35l13.91-20.21c0.18-0.26,0.48-0.42,0.79-0.42       c0.34-0.04,0.61,0.15,0.8,0.41l8.65,12.23l8.96-8.79c0.2-0.19,0.46-0.3,0.73-0.28c0.27,0.02,0.53,0.15,0.7,0.36l6.51,8.06       c0.34,0.42,0.27,1.03-0.14,1.36c-0.42,0.34-1.03,0.27-1.36-0.14l-5.84-7.23l-9.01,8.84c-0.2,0.2-0.48,0.3-0.77,0.27       c-0.28-0.03-0.54-0.17-0.71-0.41l-8.5-12.02L6.36,45.79C6.17,46.06,5.87,46.21,5.56,46.21z" />
          </g>
          <g>
            <path
              d="M31.12,26.85c-3.13,0-5.67-2.54-5.67-5.67s2.54-5.67,5.67-5.67c3.13,0,5.67,2.54,5.67,5.67S34.24,26.85,31.12,26.85z        M31.12,17.45c-2.06,0-3.73,1.67-3.73,3.73s1.67,3.73,3.73,3.73c2.06,0,3.73-1.67,3.73-3.73S33.18,17.45,31.12,17.45z" />
          </g>
        </g>
        <g>
          <g>
            <g>
              <path
                d="M52,57.23c-0.51,0-1.03-0.03-1.55-0.1c-5.33-0.67-9.68-5.02-10.35-10.35c-0.47-3.74,0.77-7.4,3.42-10.04        c2.64-2.64,6.3-3.89,10.04-3.42c5.32,0.67,9.68,5.02,10.35,10.35l0,0c0.47,3.74-0.77,7.4-3.42,10.04        C58.21,55.99,55.18,57.23,52,57.23z M52.01,35.17c-2.67,0-5.21,1.04-7.12,2.95c-2.22,2.22-3.26,5.29-2.86,8.43        c0.56,4.46,4.21,8.1,8.67,8.67c3.14,0.39,6.21-0.65,8.43-2.86c2.22-2.22,3.26-5.29,2.86-8.43l0,0        c-0.56-4.46-4.21-8.1-8.67-8.67C52.88,35.2,52.44,35.17,52.01,35.17z" />
            </g>
          </g>
        </g>
      </g>
    </g>
    <g>
      <g>
        <g>
          <g>
            <g>
              <g>
                <g>
                  <path
                    d="M57.19,44.98c-0.25,0-0.51-0.1-0.7-0.3L52,40l-4.49,4.68c-0.37,0.39-0.98,0.4-1.37,0.03          c-0.39-0.37-0.4-0.98-0.03-1.37l5.19-5.41c0.37-0.38,1.03-0.38,1.4,0l5.19,5.41c0.37,0.39,0.36,1-0.03,1.37          C57.68,44.89,57.44,44.98,57.19,44.98z" />
                </g>
                <g>
                  <path
                    d="M52,52.84c-0.54,0-0.97-0.43-0.97-0.97V38.6c0-0.54,0.43-0.97,0.97-0.97s0.97,0.43,0.97,0.97v13.27          C52.97,52.41,52.54,52.84,52,52.84z" />
                </g>
              </g>
            </g>
          </g>
        </g>
      </g>
    </g>
  </g>
</svg>